<svg xmlns="http://www.w3.org/2000/svg" viewBox="0 0 766.07 222.21"><defs><style>.cls-1,.cls-2{fill:#fff;}.cls-1{fill-opacity:0;}</style></defs><g id="Livello_2" data-name="Livello 2"><g id="Livello_1-2" data-name="Livello 1"><rect class="cls-1" width="222.91" height="222.21"/><path class="cls-2" d="M76.5,124l-6.61,3.62a2.78,2.78,0,0,0,0,4.88l6.61,3.62A36.34,36.34,0,0,1,91,150.6l3.62,6.61a2.78,2.78,0,0,0,4.88,0l3.62-6.61a36.34,36.34,0,0,1,14.49-14.49l6.61-3.62a2.78,2.78,0,0,0,0-4.88L117.6,124a36.34,36.34,0,0,1-14.49-14.49l-3.62-6.61a2.89,2.89,0,0,0-4.88,0L91,109.5A36.34,36.34,0,0,1,76.5,124Zm19.37-11.82L97.05,110l1.18,2.15a41.93,41.93,0,0,0,16.7,16.7l2.15,1.18-2.15,1.17a42,42,0,0,0-16.7,16.71l-1.18,2.15-1.18-2.15a42,42,0,0,0-16.7-16.71L77,130.05l2.15-1.18A41.93,41.93,0,0,0,95.87,112.17Z"/><path class="cls-2" d="M108.79,89.53,114,92.37a27.89,27.89,0,0,1,11.13,11.12l2.83,5.19a2.79,2.79,0,0,0,4.89,0l2.84-5.19a27.93,27.93,0,0,1,11.12-11.12L152,89.53a2.79,2.79,0,0,0,0-4.89l-5.19-2.83a28,28,0,0,1-11.12-11.13l-2.84-5.18a2.9,2.9,0,0,0-4.89,0l-2.83,5.18A28,28,0,0,1,114,81.81l-5.18,2.83a2.79,2.79,0,0,0,0,4.89Zm7.87-2.83A33.6,33.6,0,0,0,130,73.35l.39-.72.4.72A33.47,33.47,0,0,0,144.13,86.7l.72.39-.72.4a33.42,33.42,0,0,0-13.34,13.33l-.4.73-.4-.72a33.42,33.42,0,0,0-13.33-13.34l-.73-.4Z"/><path class="cls-2" d="M150.64,123.35H147V119.7a2.78,2.78,0,1,0-5.56,0v3.65h-3.65a2.78,2.78,0,1,0,0,5.56h3.65v3.65a2.78,2.78,0,1,0,5.56,0v-3.65h3.65a2.78,2.78,0,1,0,0-5.56Z"/><path class="cls-2" d="M71.22,100.57h3.65v3.65a2.79,2.79,0,0,0,5.57,0v-3.65h3.65a2.79,2.79,0,0,0,0-5.57H80.44V91.35a2.79,2.79,0,0,0-5.57,0V95H71.22a2.79,2.79,0,0,0,0,5.57Z"/><path class="cls-2" d="M204.19,0H190.82A2.77,2.77,0,0,0,188,2.78V5.2H34.87V2.78A2.77,2.77,0,0,0,32.09,0H18.72a2.78,2.78,0,0,0-2.79,2.78V18.61H9a9,9,0,1,0,0,18h6.94V52.41a2.79,2.79,0,0,0,2.79,2.79H32.09a2.78,2.78,0,0,0,2.78-2.79V50h4.4V172.21h-4.4V169.8A2.77,2.77,0,0,0,32.09,167H18.72a2.78,2.78,0,0,0-2.79,2.78v15.83H9a9,9,0,1,0,0,18h6.94v15.83a2.78,2.78,0,0,0,2.79,2.78H32.09a2.77,2.77,0,0,0,2.78-2.78V217H188v2.41a2.77,2.77,0,0,0,2.78,2.78h13.37a2.78,2.78,0,0,0,2.79-2.78V203.6h7a9,9,0,0,0,0-18h-7V169.8a2.78,2.78,0,0,0-2.79-2.78H190.82A2.77,2.77,0,0,0,188,169.8v2.41h-4.4V50H188v2.42a2.77,2.77,0,0,0,2.78,2.78h13.37A2.78,2.78,0,0,0,207,52.41V36.58h7a9,9,0,0,0,0-18h-7V2.78A2.78,2.78,0,0,0,204.19,0ZM9,31a3.42,3.42,0,1,1,0-6.84h6.94V31ZM29.31,49.63H21.5V5.57h7.81ZM9,198a3.42,3.42,0,1,1,0-6.84h6.94V198Zm20.32,18.61H21.5V172.58h7.81ZM213.93,191.2a3.42,3.42,0,0,1,0,6.84h-7V191.2Zm-20.32-18.62h7.8v44.07h-7.8ZM188,211.45H34.87V177.78H188Zm-10-39.24H44.84V50H178.07ZM34.87,44.43V10.76H188V44.43Zm166.54,5.2h-7.8V5.57h7.8Zm12.52-25.45a3.42,3.42,0,0,1,0,6.84h-7V24.18Z"/><path class="cls-2" d="M284.39,99.3H253.15V96.66l2.51-.73A5.81,5.81,0,0,0,259,93.64a8.34,8.34,0,0,0,.82-4.06h0V26.51a8.09,8.09,0,0,0-.82-4,5.67,5.67,0,0,0-3.32-2.33h0l-2.51-.74V16.79h31.24v2.63l-2.51.74a5.9,5.9,0,0,0-3.24,2.33,7.75,7.75,0,0,0-.86,4h0V89.58a8,8,0,0,0,.86,4.06,6.06,6.06,0,0,0,3.24,2.29h0l2.51.73Zm26.43,0H291.6V96.66l3.63-1a4.91,4.91,0,0,0,3.33-2.38,9.06,9.06,0,0,0,.9-4.23h0V28.67a33.33,33.33,0,0,0-1.9-3.59,16.19,16.19,0,0,0-1.68-2,25.7,25.7,0,0,0-2.38-2h0l-2.25-1.6V16.79H312.6L354,73.47V27.16a10.72,10.72,0,0,0-.82-4.37,4.35,4.35,0,0,0-3.28-2.5h0l-3.76-.87V16.79h18.62v2.63l-3.15.87a4,4,0,0,0-2.9,2.55,14.85,14.85,0,0,0-.56,4.32h0V99.82h-7L303.61,34.37V88.93a11.18,11.18,0,0,0,.73,4.36,4.19,4.19,0,0,0,3.11,2.38h0l3.37,1Zm103.86,2.12h0a47.26,47.26,0,0,1-21.82-5,37.19,37.19,0,0,1-15.42-14.73Q371.74,72,371.74,58h0a47.27,47.27,0,0,1,3.45-18.62,38.2,38.2,0,0,1,9.51-13.65,40.11,40.11,0,0,1,13.91-8.38,49.35,49.35,0,0,1,16.71-2.81h0A51.08,51.08,0,0,1,428.2,16.1a49.2,49.2,0,0,1,11.45,4.58h0L440.16,37H436.8l-5.23-9.85a31.19,31.19,0,0,0-2.72-4.5,8.23,8.23,0,0,0-3.68-2.89h0a17,17,0,0,0-7.34-1.47h0A25.21,25.21,0,0,0,404.4,22q-6.06,3.76-9.68,12.45t-3.63,23.63h0q0,14.85,3.46,23.63t9.28,12.4a24.52,24.52,0,0,0,13.22,3.67h0a25.59,25.59,0,0,0,5.49-.48,28.78,28.78,0,0,0,4.28-1.38h0A8.11,8.11,0,0,0,430.66,93a21.64,21.64,0,0,0,2.38-4.4h0l4.75-11.37h3.37l-.52,18a49.47,49.47,0,0,1-11.84,4.62A59.19,59.19,0,0,1,414.68,101.42Zm49.68-2.12h-19.1V96.66l3.37-1a8.59,8.59,0,0,0,4.06-2.25,10.13,10.13,0,0,0,2.34-4.1h0L480.21,16.4h10.37l25.1,73.4A13.16,13.16,0,0,0,517.92,94a9.08,9.08,0,0,0,4,2.33h0l1.86.47V99.3H492.09V96.79l2.12-.6q2.76-.87,3.32-2.77a7.76,7.76,0,0,0-.34-4.62h0L492,72.73h-27.6L459,88.59a9,9,0,0,0-.48,4.49c.24,1.15,1.27,2.06,3.12,2.72h0l2.72.86Zm14.25-67.78-13,37.58h25.23ZM549,99.3H529.8V96.66l3.59-1a4.91,4.91,0,0,0,3.33-2.38,8.7,8.7,0,0,0,.95-4.23h0V28.67a27.76,27.76,0,0,0-1.95-3.59,15.37,15.37,0,0,0-1.68-2,19.6,19.6,0,0,0-2.38-2h0l-2.24-1.6V16.79h21.34l41.43,56.68V27.16a10.71,10.71,0,0,0-.83-4.37,4.33,4.33,0,0,0-3.28-2.5h0l-3.76-.87V16.79h18.62v2.63l-3.11.87a4,4,0,0,0-2.94,2.55,14.85,14.85,0,0,0-.56,4.32h0V99.82h-7L541.77,34.37V88.93a11.17,11.17,0,0,0,.74,4.36,4.29,4.29,0,0,0,3.15,2.38h0l3.37,1Zm116.55,0H627V96.66l5-1q5.22-1.12,5.22-6.09h0V38q0-8.73-.13-17.45h-9.85c-2.65,0-4.6.7-5.87,2.11a26.63,26.63,0,0,0-3.72,6h0l-4.36,9.2h-3.5l.61-21.08h71.66l.61,21.08h-3.5l-4.36-9.2a25.57,25.57,0,0,0-3.76-6q-1.86-2.11-5.83-2.11h-10v69q0,5.1,5.27,6.09h0l5.1,1ZM727,101.42h0a39.83,39.83,0,0,1-14.6-2.73,37.68,37.68,0,0,1-12.57-8.2A38.55,38.55,0,0,1,691.07,77a51,51,0,0,1-3.24-19h0a50.38,50.38,0,0,1,3.24-18.75,39.5,39.5,0,0,1,8.77-13.61,38,38,0,0,1,12.61-8.29A39.27,39.27,0,0,1,727,14.54h0a39.55,39.55,0,0,1,14.56,2.77,36,36,0,0,1,12.53,8.16A39.45,39.45,0,0,1,762.83,39a51.13,51.13,0,0,1,3.24,19h0a50.24,50.24,0,0,1-3.24,18.71,39.72,39.72,0,0,1-8.73,13.6,37,37,0,0,1-12.49,8.3A38.86,38.86,0,0,1,727,101.42Zm0-3.76h0c4.75,0,8.59-1.23,11.49-3.67s5-6.58,6.35-12.4,2-13.71,2-23.59h0q0-14.86-2-23.54T738.5,22.1c-2.9-2.45-6.74-3.67-11.49-3.67h0q-7,0-11.4,3.67t-6.44,12.36q-2,8.68-2,23.54h0q0,14.82,2,23.59T715.61,94Q720,97.65,727,97.66Z"/><path class="cls-2" d="M286.79,205.38H253.15v-2.81l2.81-.82c1.79-.52,2.93-1.3,3.42-2.33a10.51,10.51,0,0,0,.73-4.37h0q.18-7.74.18-15.52v-15.7h0V142.78q0-7.74-.18-15.52h0a11.59,11.59,0,0,0-.65-4.37c-.46-1-1.58-1.81-3.37-2.33h0l-2.94-1V116.8h37.53q15.69,0,24.21,6t8.52,16.69h0q0,5.88-4.63,11.93t-14.14,9.26h0l18.2,35.49a12.1,12.1,0,0,0,7.14,6.05h0l2.5.52v2.68H308.79l-20-41.8h-9.64v17.16q0,7.6.13,14.31h0a9.34,9.34,0,0,0,.86,4.32,5,5,0,0,0,3.42,2.25h0l3.2.95Zm-7.61-45.7h7.22q9.51,0,13.92-4.84t4.45-14.74h0q0-9.9-4.23-14.66t-13.62-4.75h-7.61q0,5.24-.09,10.63t0,12.2Zm124.21,45.7H336.94v-2.81l2.68-.95a5,5,0,0,0,3.33-2.33,10.56,10.56,0,0,0,1.08-4.63h0v-67.4a10.78,10.78,0,0,0-.95-4.37,5.16,5.16,0,0,0-3.33-2.33h0l-2.81-1V116.8h63.77l1,21.44H397.9l-5.37-12.06a13.31,13.31,0,0,0-2.42-4,5.35,5.35,0,0,0-4-1.38H363.31q-.13,8.3-.13,17.08v19.75h13.27a5.67,5.67,0,0,0,4.11-1.38,15.41,15.41,0,0,0,2.59-3.81h0l2.29-5.1h2.94v24.78h-2.94L383,167a14.57,14.57,0,0,0-2.42-3.84,5.08,5.08,0,0,0-4-1.52h-13.4v16.65q0,7,.09,12.41c0,3.6,0,7.14,0,10.63h25.77a5.69,5.69,0,0,0,4.15-1.43,10.23,10.23,0,0,0,2.42-3.93h0l4.93-12.06h3.76Zm52.83.52h-9.51L418,126.83a9.66,9.66,0,0,0-6.83-6.4h0l-2.94-.82V116.8h37.14v2.68l-3.77,1c-2,.52-3.18,1.45-3.41,2.81a10.58,10.58,0,0,0,.73,5.1h0l19.29,57.2,19.45-57.2a14.29,14.29,0,0,0,1-5.1c0-1.36-1.11-2.29-3.15-2.81h0l-3.2-1V116.8h20v2.81l-3.37.82a6.29,6.29,0,0,0-3.93,2.25,16.54,16.54,0,0,0-2.08,4.45h0Zm106.26-.52H496v-2.81l2.68-.95a5.13,5.13,0,0,0,3.37-2.33,10.29,10.29,0,0,0,1.08-4.63h0v-67.4a10.46,10.46,0,0,0-.95-4.37,5.27,5.27,0,0,0-3.33-2.33h0l-2.85-1V116.8H559.8l1,21.44H557l-5.36-12.06a13.52,13.52,0,0,0-2.42-4,5.35,5.35,0,0,0-4-1.38H522.41q-.13,8.3-.13,17.08v19.75h13.27a5.5,5.5,0,0,0,4.06-1.38,15,15,0,0,0,2.64-3.81h0l2.29-5.1h2.94v24.78h-2.94L542.12,167a14.83,14.83,0,0,0-2.42-3.84,5.08,5.08,0,0,0-4-1.52h-13.4v16.65q0,7,.08,12.41t0,10.63h25.72a5.67,5.67,0,0,0,4.15-1.43A9.46,9.46,0,0,0,554.7,196h0l5-12.06h3.76Zm72.37,0H570.26v-2.81l2.69-.82q2.81-.92,3.63-2.46a10,10,0,0,0,.77-4.37h0V127.13a9.59,9.59,0,0,0-.77-4.24,5.86,5.86,0,0,0-3.51-2.46h0l-2.81-.82V116.8h33.25v2.81l-2.55.82a5.81,5.81,0,0,0-3.42,2.55,9.46,9.46,0,0,0-.86,4.41h0v74h19.67c3.06,0,5.33-.76,6.83-2.29a22.84,22.84,0,0,0,4.33-6.57h0l4.92-11.11h3.76Zm41.29,0h-33.5v-2.81l2.68-.82a6.08,6.08,0,0,0,3.54-2.46,9.07,9.07,0,0,0,.87-4.37h0V127.26a9.07,9.07,0,0,0-.87-4.37,6,6,0,0,0-3.54-2.46h0l-2.68-.82V116.8h33.5v2.81l-2.68.82a6.42,6.42,0,0,0-3.5,2.46,8.7,8.7,0,0,0-.91,4.37h0v67.66a8.7,8.7,0,0,0,.91,4.37,6.47,6.47,0,0,0,3.5,2.46h0l2.68.82Zm48,2.29h0a42.69,42.69,0,0,1-15.69-2.94,40.5,40.5,0,0,1-22.92-23.34A54.4,54.4,0,0,1,682,161h0a53.6,53.6,0,0,1,3.5-20.1A41.84,41.84,0,0,1,695,126.31a40.72,40.72,0,0,1,13.53-8.91,42.12,42.12,0,0,1,15.65-3h0a42.77,42.77,0,0,1,15.61,2.94,39.82,39.82,0,0,1,13.44,8.77,41.57,41.57,0,0,1,9.38,14.57A54.17,54.17,0,0,1,766.07,161h0a53.63,53.63,0,0,1-3.51,20.11,42.59,42.59,0,0,1-9.38,14.61,39.8,39.8,0,0,1-13.4,8.91A41.48,41.48,0,0,1,724.13,207.67Zm0-4h0q7.61,0,12.32-4t6.83-13.31q2.16-9.39,2.16-25.34h0q0-15.95-2.16-25.24t-6.83-13.28q-4.71-4-12.32-4h0q-7.51,0-12.28,4t-6.91,13.28q-2.13,9.28-2.12,25.24h0q0,16,2.12,25.34t6.91,13.31Q716.61,203.66,724.13,203.65Z"/></g></g></svg>