<svg xmlns="http://www.w3.org/2000/svg" viewBox="0 0 222.91 222.21"><defs><style>.cls-1,.cls-2{fill:#fff;}.cls-1{fill-opacity:0;}</style></defs><g id="Livello_2" data-name="Livello 2"><g id="Livello_1-2" data-name="Livello 1"><rect class="cls-1" width="222.91" height="222.21"/><path class="cls-2" d="M76.5,124l-6.61,3.62a2.78,2.78,0,0,0,0,4.88l6.61,3.62A36.34,36.34,0,0,1,91,150.6l3.62,6.61a2.78,2.78,0,0,0,4.88,0l3.62-6.61a36.34,36.34,0,0,1,14.49-14.49l6.61-3.62a2.78,2.78,0,0,0,0-4.88L117.6,124a36.34,36.34,0,0,1-14.49-14.49l-3.62-6.61a2.89,2.89,0,0,0-4.88,0L91,109.5A36.34,36.34,0,0,1,76.5,124Zm19.37-11.82L97.05,110l1.18,2.15a41.93,41.93,0,0,0,16.7,16.7l2.15,1.18-2.15,1.17a42,42,0,0,0-16.7,16.71l-1.18,2.15-1.18-2.15a42,42,0,0,0-16.7-16.71L77,130.05l2.15-1.18A41.93,41.93,0,0,0,95.87,112.17Z"/><path class="cls-2" d="M108.79,89.53,114,92.37a27.89,27.89,0,0,1,11.13,11.12l2.83,5.19a2.79,2.79,0,0,0,4.89,0l2.84-5.19a27.93,27.93,0,0,1,11.12-11.12L152,89.53a2.79,2.79,0,0,0,0-4.89l-5.19-2.83a28,28,0,0,1-11.12-11.13l-2.84-5.18a2.9,2.9,0,0,0-4.89,0l-2.83,5.18A28,28,0,0,1,114,81.81l-5.18,2.83a2.79,2.79,0,0,0,0,4.89Zm7.87-2.83A33.6,33.6,0,0,0,130,73.35l.39-.72.4.72A33.47,33.47,0,0,0,144.13,86.7l.72.39-.72.4a33.42,33.42,0,0,0-13.34,13.33l-.4.73-.4-.72a33.42,33.42,0,0,0-13.33-13.34l-.73-.4Z"/><path class="cls-2" d="M150.64,123.35H147V119.7a2.78,2.78,0,1,0-5.56,0v3.65h-3.65a2.78,2.78,0,1,0,0,5.56h3.65v3.65a2.78,2.78,0,1,0,5.56,0v-3.65h3.65a2.78,2.78,0,1,0,0-5.56Z"/><path class="cls-2" d="M71.22,100.57h3.65v3.65a2.79,2.79,0,0,0,5.57,0v-3.65h3.65a2.79,2.79,0,0,0,0-5.57H80.44V91.35a2.79,2.79,0,0,0-5.57,0V95H71.22a2.79,2.79,0,0,0,0,5.57Z"/><path class="cls-2" d="M204.19,0H190.82A2.77,2.77,0,0,0,188,2.78V5.2H34.87V2.78A2.77,2.77,0,0,0,32.09,0H18.72a2.78,2.78,0,0,0-2.79,2.78V18.61H9a9,9,0,1,0,0,18h6.94V52.41a2.79,2.79,0,0,0,2.79,2.79H32.09a2.78,2.78,0,0,0,2.78-2.79V50h4.4V172.21h-4.4V169.8A2.77,2.77,0,0,0,32.09,167H18.72a2.78,2.78,0,0,0-2.79,2.78v15.83H9a9,9,0,1,0,0,18h6.94v15.83a2.78,2.78,0,0,0,2.79,2.78H32.09a2.77,2.77,0,0,0,2.78-2.78V217H188v2.41a2.77,2.77,0,0,0,2.78,2.78h13.37a2.78,2.78,0,0,0,2.79-2.78V203.6h7a9,9,0,0,0,0-18h-7V169.8a2.78,2.78,0,0,0-2.79-2.78H190.82A2.77,2.77,0,0,0,188,169.8v2.41h-4.4V50H188v2.42a2.77,2.77,0,0,0,2.78,2.78h13.37A2.78,2.78,0,0,0,207,52.41V36.58h7a9,9,0,0,0,0-18h-7V2.78A2.78,2.78,0,0,0,204.19,0ZM9,31a3.42,3.42,0,1,1,0-6.84h6.94V31ZM29.31,49.63H21.5V5.57h7.81ZM9,198a3.42,3.42,0,1,1,0-6.84h6.94V198Zm20.32,18.61H21.5V172.58h7.81ZM213.93,191.2a3.42,3.42,0,0,1,0,6.84h-7V191.2Zm-20.32-18.62h7.8v44.07h-7.8ZM188,211.45H34.87V177.78H188Zm-10-39.24H44.84V50H178.07ZM34.87,44.43V10.76H188V44.43Zm166.54,5.2h-7.8V5.57h7.8Zm12.52-25.45a3.42,3.42,0,0,1,0,6.84h-7V24.18Z"/></g></g></svg>